<svg height='300px' width='300px'  fill="#1A1A1A" xmlns="http://www.w3.org/2000/svg" xmlns:xlink="http://www.w3.org/1999/xlink" version="1.1" x="0px" y="0px" viewBox="0 0 100 100" enable-background="new 0 0 100 100" xml:space="preserve">
    <!-- https://thenounproject.com/kozinn/collection/user-interface/?i=304494 - (c) Nikita Kozin -->
<g><path d="M46.406,50.145l19.76-4.079L13.509,11.005l4.036,63.131l13.809-15.52l13.267,22.979l14.958-8.635L46.406,50.145z    M32.092,51.391L21.139,63.701L18.3,19.304L55.332,43.96l-15.553,3.21L53.77,71.404l-7.592,4.383L32.092,51.391z"></path><path d="M83.648,66.393v-8.281h2.842v-4.252H56.9v4.252h2.844v8.281l1.01,1.811l4.951,3.049l-4.963,3.102l-0.998,1.803v8.586H56.9   v4.252h29.59v-4.252h-2.842v-8.586l-1-1.803l-4.961-3.102l4.949-3.049L83.648,66.393z M72.539,69.428l-0.012,3.613l6.869,4.293   v7.408h-15.4v-7.408l6.867-4.293l-0.012-3.613l-6.855-4.223v-7.094h15.4v7.094L72.539,69.428z"></path></g></svg>